{
  "accessors": [
    {
      "bufferView": 2,
      "componentType": 5126,
      "count": 60221,
      "max": [
        0.9487727880477905,
        0.0,
        0.92118901014328
      ],
      "min": [
        -0.9487727880477905,
        0.0,
        -0.92118901014328
      ],
      "type": "VEC3"
    },
    {
      "bufferView": 2,
      "byteOffset": 722652,
      "componentType": 5126,
      "count": 60221,
      "max": [
        0.0,
        1.0,
        -0.0
      ],
      "min": [
        0.0,
        1.0,
        -0.0
      ],
      "type": "VEC3"
    },
    {
      "bufferView": 1,
      "componentType": 5126,
      "count": 60221,
      "max": [
        0.6666668057441711,
        0.9605945348739624
      ],
      "min": [
        0.33333325386047363,
        0.49913692474365234
      ],
      "type": "VEC2"
    },
    {
      "bufferView": 1,
      "byteOffset": 481768,
      "componentType": 5126,
      "count": 60221,
      "max": [
        0.9240263104438782,
        0.9605945348739624
      ],
      "min": [
        0.07597401738166809,
        0.49913692474365234
      ],
      "type": "VEC2"
    },
    {
      "bufferView": 0,
      "componentType": 5125,
      "count": 342528,
      "type": "SCALAR"
    },
    {
      "bufferView": 2,
      "byteOffset": 1445304,
      "componentType": 5126,
      "count": 10944,
      "max": [
        1.0,
        0.0,
        1.0
      ],
      "min": [
        -1.0,
        0.0,
        -1.0
      ],
      "type": "VEC3"
    },
    {
      "bufferView": 2,
      "byteOffset": 1576632,
      "componentType": 5126,
      "count": 10944,
      "max": [
        0.0,
        1.0,
        -0.0
      ],
      "min": [
        0.0,
        1.0,
        -0.0
      ],
      "type": "VEC3"
    },
    {
      "bufferView": 1,
      "byteOffset": 963536,
      "componentType": 5126,
      "count": 10944,
      "max": [
        1.0,
        1.0
      ],
      "min": [
        -5.9590867351744237e-08,
        0.4991370439529419
      ],
      "type": "VEC2"
    },
    {
      "bufferView": 1,
      "byteOffset": 1051088,
      "componentType": 5126,
      "count": 10944,
      "max": [
        1.000000238418579,
        1.0
      ],
      "min": [
        -6.474037278492162e-11,
        0.4991370439529419
      ],
      "type": "VEC2"
    },
    {
      "bufferView": 0,
      "byteOffset": 1370112,
      "componentType": 5125,
      "count": 58368,
      "type": "SCALAR"
    },
    {
      "bufferView": 2,
      "byteOffset": 1707960,
      "componentType": 5126,
      "count": 13452,
      "max": [
        0.9487727880477905,
        0.0,
        0.9990634918212891
      ],
      "min": [
        -0.9487727880477905,
        0.0,
        -0.9990634918212891
      ],
      "type": "VEC3"
    },
    {
      "bufferView": 2,
      "byteOffset": 1869384,
      "componentType": 5126,
      "count": 13452,
      "max": [
        0.0,
        1.0,
        -0.0
      ],
      "min": [
        0.0,
        1.0,
        -0.0
      ],
      "type": "VEC3"
    },
    {
      "bufferView": 1,
      "byteOffset": 1138640,
      "componentType": 5126,
      "count": 13452,
      "max": [
        0.6666666269302368,
        0.9995318055152893
      ],
      "min": [
        0.0,
        0.0
      ],
      "type": "VEC2"
    },
    {
      "bufferView": 1,
      "byteOffset": 1246256,
      "componentType": 5126,
      "count": 13452,
      "max": [
        0.9240260124206543,
        0.9995318055152893
      ],
      "min": [
        0.0,
        0.0
      ],
      "type": "VEC2"
    },
    {
      "bufferView": 0,
      "byteOffset": 1603584,
      "componentType": 5125,
      "count": 76941,
      "type": "SCALAR"
    },
    {
      "bufferView": 2,
      "byteOffset": 2030808,
      "componentType": 5126,
      "count": 19692,
      "max": [
        0.948772668838501,
        0.0,
        0.8005492091178894
      ],
      "min": [
        -0.948772668838501,
        0.0,
        -0.8005492091178894
      ],
      "type": "VEC3"
    },
    {
      "bufferView": 2,
      "byteOffset": 2267112,
      "componentType": 5126,
      "count": 19692,
      "max": [
        0.0,
        1.0,
        -0.0
      ],
      "min": [
        0.0,
        1.0,
        -0.0
      ],
      "type": "VEC3"
    },
    {
      "bufferView": 1,
      "byteOffset": 1353872,
      "componentType": 5126,
      "count": 19692,
      "max": [
        0.6666666865348816,
        0.9006141424179077
      ],
      "min": [
        0.33333325386047363,
        0.5735604166984558
      ],
      "type": "VEC2"
    },
    {
      "bufferView": 1,
      "byteOffset": 1511408,
      "componentType": 5126,
      "count": 19692,
      "max": [
        0.9240260720252991,
        0.9006141424179077
      ],
      "min": [
        0.07597401738166809,
        0.5735604166984558
      ],
      "type": "VEC2"
    },
    {
      "bufferView": 0,
      "byteOffset": 1911348,
      "componentType": 5125,
      "count": 101376,
      "type": "SCALAR"
    },
    {
      "bufferView": 2,
      "byteOffset": 2503416,
      "componentType": 5126,
      "count": 864,
      "max": [
        0.023101210594177246,
        0.0,
        0.6291106343269348
      ],
      "min": [
        -0.032708942890167236,
        -0.15999998152256012,
        -0.6291106343269348
      ],
      "type": "VEC3"
    },
    {
      "bufferView": 2,
      "byteOffset": 2513784,
      "componentType": 5126,
      "count": 864,
      "max": [
        1.0,
        1.0,
        1.0
      ],
      "min": [
        -1.0,
        -1.0,
        -1.0
      ],
      "type": "VEC3"
    },
    {
      "bufferView": 1,
      "byteOffset": 1668944,
      "componentType": 5126,
      "count": 864,
      "max": [
        0.656862735748291,
        0.842322587966919
      ],
      "min": [
        0.6470588445663452,
        0.8309445381164551
      ],
      "type": "VEC2"
    },
    {
      "bufferView": 1,
      "byteOffset": 1675856,
      "componentType": 5126,
      "count": 864,
      "max": [
        0.8990833163261414,
        0.842322587966919
      ],
      "min": [
        0.8741406202316284,
        0.8309445381164551
      ],
      "type": "VEC2"
    },
    {
      "bufferView": 0,
      "byteOffset": 2316852,
      "componentType": 5125,
      "count": 1296,
      "type": "SCALAR"
    },
    {
      "bufferView": 2,
      "byteOffset": 2524152,
      "componentType": 5126,
      "count": 24,
      "max": [
        0.023101208731532097,
        0.0,
        -0.009896278381347656
      ],
      "min": [
        -0.03270893916487694,
        -0.15999998152256012,
        -0.03269165754318237
      ],
      "type": "VEC3"
    },
    {
      "bufferView": 2,
      "byteOffset": 2524440,
      "componentType": 5126,
      "count": 24,
      "max": [
        1.0,
        1.0,
        1.0
      ],
      "min": [
        -1.0,
        -1.0,
        -1.0
      ],
      "type": "VEC3"
    },
    {
      "bufferView": 1,
      "byteOffset": 1682768,
      "componentType": 5126,
      "count": 24,
      "max": [
        0.656862735748291,
        0.842322587966919
      ],
      "min": [
        0.6470588445663452,
        0.8309445381164551
      ],
      "type": "VEC2"
    },
    {
      "bufferView": 1,
      "byteOffset": 1682960,
      "componentType": 5126,
      "count": 24,
      "max": [
        0.8990833163261414,
        0.842322587966919
      ],
      "min": [
        0.8741406202316284,
        0.8309445381164551
      ],
      "type": "VEC2"
    },
    {
      "bufferView": 0,
      "byteOffset": 2322036,
      "componentType": 5125,
      "count": 36,
      "type": "SCALAR"
    },
    {
      "bufferView": 2,
      "byteOffset": 2524728,
      "componentType": 5126,
      "count": 680,
      "max": [
        0.23979833722114563,
        0.02156408317387104,
        0.278322696685791
      ],
      "min": [
        -0.2397983819246292,
        -0.1984359174966812,
        -0.012349903583526611
      ],
      "type": "VEC3"
    },
    {
      "bufferView": 2,
      "byteOffset": 2532888,
      "componentType": 5126,
      "count": 680,
      "max": [
        1.0,
        1.0,
        1.0
      ],
      "min": [
        -1.0,
        -1.0,
        -1.0
      ],
      "type": "VEC3"
    },
    {
      "bufferView": 1,
      "byteOffset": 1683152,
      "componentType": 5126,
      "count": 680,
      "max": [
        0.5098039507865906,
        0.9942799806594849
      ],
      "min": [
        0.0,
        0.0
      ],
      "type": "VEC2"
    },
    {
      "bufferView": 1,
      "byteOffset": 1688592,
      "componentType": 5126,
      "count": 680,
      "max": [
        0.5249426960945129,
        0.9942799806594849
      ],
      "min": [
        0.0,
        0.0
      ],
      "type": "VEC2"
    },
    {
      "bufferView": 0,
      "byteOffset": 2322180,
      "componentType": 5125,
      "count": 1200,
      "type": "SCALAR"
    },
    {
      "bufferView": 2,
      "byteOffset": 2541048,
      "componentType": 5126,
      "count": 710,
      "max": [
        0.49000000953674316,
        0.0,
        0.009000000543892384
      ],
      "min": [
        -0.4659999907016754,
        -0.005000000819563866,
        -0.6910000443458557
      ],
      "type": "VEC3"
    },
    {
      "bufferView": 2,
      "byteOffset": 2549568,
      "componentType": 5126,
      "count": 710,
      "max": [
        1.0,
        1.0,
        1.0
      ],
      "min": [
        -1.0,
        -1.0,
        -1.0
      ],
      "type": "VEC3"
    },
    {
      "bufferView": 1,
      "byteOffset": 1694032,
      "componentType": 5126,
      "count": 710,
      "max": [
        1.0,
        0.0
      ],
      "min": [
        0.0,
        0.0
      ],
      "type": "VEC2"
    },
    {
      "bufferView": 0,
      "byteOffset": 2326980,
      "componentType": 5125,
      "count": 1116,
      "type": "SCALAR"
    },
    {
      "bufferView": 2,
      "byteOffset": 2558088,
      "componentType": 5126,
      "count": 1698,
      "max": [
        0.4610000252723694,
        0.0,
        0.009000000543892384
      ],
      "min": [
        -0.4699999988079071,
        -0.005000000353902578,
        -0.6910000443458557
      ],
      "type": "VEC3"
    },
    {
      "bufferView": 2,
      "byteOffset": 2578464,
      "componentType": 5126,
      "count": 1698,
      "max": [
        0.9996989965438843,
        1.0,
        0.9996877312660217
      ],
      "min": [
        -0.9999998211860657,
        -1.0,
        -0.9995178580284119
      ],
      "type": "VEC3"
    },
    {
      "bufferView": 1,
      "byteOffset": 1699712,
      "componentType": 5126,
      "count": 1698,
      "max": [
        1.0,
        0.0
      ],
      "min": [
        0.0,
        0.0
      ],
      "type": "VEC2"
    },
    {
      "bufferView": 0,
      "byteOffset": 2331444,
      "componentType": 5125,
      "count": 2748,
      "type": "SCALAR"
    }
  ],
  "asset": {
    "extras": {
      "author": "pranav27 (https://sketchfab.com/pranav27)",
      "license": "CC-BY-4.0 (http://creativecommons.org/licenses/by/4.0/)",
      "source": "https://sketchfab.com/3d-models/runway-7531233498374cf1beef65075ed2fcee",
      "title": "RUNWAY"
    },
    "generator": "Sketchfab-15.36.0",
    "version": "2.0"
  },
  "bufferViews": [
    {
      "buffer": 0,
      "byteLength": 2342436,
      "name": "floatBufferViews",
      "target": 34963
    },
    {
      "buffer": 0,
      "byteLength": 1713296,
      "byteOffset": 2342436,
      "byteStride": 8,
      "name": "floatBufferViews",
      "target": 34962
    },
    {
      "buffer": 0,
      "byteLength": 2598840,
      "byteOffset": 4055732,
      "byteStride": 12,
      "name": "floatBufferViews",
      "target": 34962
    }
  ],
  "buffers": [
    {
      "byteLength": 6654572,
      "uri": "scene.bin"
    }
  ],
  "materials": [
    {
      "doubleSided": true,
      "name": "material_0",
      "pbrMetallicRoughness": {
        "metallicFactor": 0.0,
        "roughnessFactor": 0.6
      }
    },
    {
      "doubleSided": true,
      "name": "Material",
      "pbrMetallicRoughness": {
        "baseColorFactor": [
          0.0,
          0.0,
          0.0,
          1.0
        ],
        "metallicFactor": 0.498182
      }
    },
    {
      "doubleSided": true,
      "name": "Material.001",
      "pbrMetallicRoughness": {
        "baseColorFactor": [
          0.8,
          0.8,
          0.8,
          1.0
        ],
        "metallicFactor": 0.0,
        "roughnessFactor": 0.5
      }
    },
    {
      "doubleSided": true,
      "name": "Material.002",
      "pbrMetallicRoughness": {
        "baseColorFactor": [
          0.129097,
          0.129097,
          0.129097,
          1.0
        ],
        "metallicFactor": 0.0
      }
    },
    {
      "doubleSided": true,
      "name": "white_strip",
      "pbrMetallicRoughness": {
        "baseColorFactor": [
          0.8,
          0.8,
          0.8,
          1.0
        ],
        "metallicFactor": 0.0,
        "roughnessFactor": 0.5
      }
    }
  ],
  "meshes": [
    {
      "name": "Object_0",
      "primitives": [
        {
          "attributes": {
            "NORMAL": 1,
            "POSITION": 0,
            "TEXCOORD_0": 2,
            "TEXCOORD_1": 3
          },
          "indices": 4,
          "material": 1,
          "mode": 4
        }
      ]
    },
    {
      "name": "Object_1",
      "primitives": [
        {
          "attributes": {
            "NORMAL": 6,
            "POSITION": 5,
            "TEXCOORD_0": 7,
            "TEXCOORD_1": 8
          },
          "indices": 9,
          "material": 2,
          "mode": 4
        }
      ]
    },
    {
      "name": "Object_2",
      "primitives": [
        {
          "attributes": {
            "NORMAL": 11,
            "POSITION": 10,
            "TEXCOORD_0": 12,
            "TEXCOORD_1": 13
          },
          "indices": 14,
          "material": 3,
          "mode": 4
        }
      ]
    },
    {
      "name": "Object_3",
      "primitives": [
        {
          "attributes": {
            "NORMAL": 16,
            "POSITION": 15,
            "TEXCOORD_0": 17,
            "TEXCOORD_1": 18
          },
          "indices": 19,
          "material": 4,
          "mode": 4
        }
      ]
    },
    {
      "name": "Object_4",
      "primitives": [
        {
          "attributes": {
            "NORMAL": 21,
            "POSITION": 20,
            "TEXCOORD_0": 22,
            "TEXCOORD_1": 23
          },
          "indices": 24,
          "material": 4,
          "mode": 4
        }
      ]
    },
    {
      "name": "Object_5",
      "primitives": [
        {
          "attributes": {
            "NORMAL": 26,
            "POSITION": 25,
            "TEXCOORD_0": 27,
            "TEXCOORD_1": 28
          },
          "indices": 29,
          "material": 4,
          "mode": 4
        }
      ]
    },
    {
      "name": "Object_6",
      "primitives": [
        {
          "attributes": {
            "NORMAL": 31,
            "POSITION": 30,
            "TEXCOORD_0": 32,
            "TEXCOORD_1": 33
          },
          "indices": 34,
          "material": 4,
          "mode": 4
        }
      ]
    },
    {
      "name": "Object_7",
      "primitives": [
        {
          "attributes": {
            "NORMAL": 36,
            "POSITION": 35,
            "TEXCOORD_0": 37
          },
          "indices": 38,
          "material": 0,
          "mode": 4
        }
      ]
    },
    {
      "name": "Object_8",
      "primitives": [
        {
          "attributes": {
            "NORMAL": 40,
            "POSITION": 39,
            "TEXCOORD_0": 41
          },
          "indices": 42,
          "material": 0,
          "mode": 4
        }
      ]
    }
  ],
  "nodes": [
    {
      "children": [
        1
      ],
      "matrix": [
        1.0,
        0.0,
        0.0,
        0.0,
        0.0,
        2.220446049250313e-16,
        -1.0,
        0.0,
        0.0,
        1.0,
        2.220446049250313e-16,
        0.0,
        0.0,
        0.0,
        0.0,
        1.0
      ],
      "name": "Sketchfab_model"
    },
    {
      "children": [
        2
      ],
      "name": "root"
    },
    {
      "children": [
        3,
        8,
        10,
        12,
        14,
        16
      ],
      "matrix": [
        1.0,
        0.0,
        0.0,
        0.0,
        0.0,
        2.220446049250313e-16,
        1.0,
        0.0,
        0.0,
        -1.0,
        2.220446049250313e-16,
        0.0,
        0.0,
        0.0,
        0.0,
        1.0
      ],
      "name": "GLTF_SceneRootNode"
    },
    {
      "children": [
        4,
        5,
        6,
        7
      ],
      "matrix": [
        60.0,
        0.0,
        0.0,
        0.0,
        0.0,
        1.0,
        0.0,
        0.0,
        0.0,
        0.0,
        3660.0,
        0.0,
        0.0,
        0.0,
        0.0,
        1.0
      ],
      "name": "Runway_0"
    },
    {
      "mesh": 0,
      "name": "Object_4"
    },
    {
      "mesh": 1,
      "name": "Object_5"
    },
    {
      "mesh": 2,
      "name": "Object_6"
    },
    {
      "mesh": 3,
      "name": "Object_7"
    },
    {
      "children": [
        9
      ],
      "matrix": [
        60.0,
        0.0,
        0.0,
        0.0,
        0.0,
        1.0,
        0.0,
        0.0,
        0.0,
        0.0,
        3660.0,
        0.0,
        0.22412870824337006,
        0.009999999776482582,
        -62.9055290222168,
        1.0
      ],
      "name": "Central marking_1"
    },
    {
      "mesh": 4,
      "name": "Object_9"
    },
    {
      "children": [
        11
      ],
      "matrix": [
        60.0,
        0.0,
        0.0,
        0.0,
        0.0,
        1.0,
        0.0,
        0.0,
        0.0,
        0.0,
        3660.0,
        0.0,
        0.22412870824337006,
        0.009999999776482582,
        2407.71435546875,
        1.0
      ],
      "name": "Central marking 1_4"
    },
    {
      "mesh": 5,
      "name": "Object_11"
    },
    {
      "children": [
        13
      ],
      "matrix": [
        60.0,
        0.0,
        0.0,
        0.0,
        0.0,
        1.0,
        0.0,
        0.0,
        0.0,
        0.0,
        3660.0,
        0.0,
        0.0,
        0.05237710848450661,
        -3594.2529296875,
        1.0
      ],
      "name": "Runway arrrow_5"
    },
    {
      "mesh": 6,
      "name": "Object_13"
    },
    {
      "children": [
        15
      ],
      "matrix": [
        -31.822311401365493,
        0.0,
        1.0369025539956682e-05,
        0.0,
        0.0,
        31.822311401367188,
        0.0,
        0.0,
        -1.0369025539956682e-05,
        0.0,
        -31.822311401365493,
        0.0,
        0.0,
        0.0571829155087471,
        -2401.548095703125,
        1.0
      ],
      "name": "27 marking.001_6"
    },
    {
      "mesh": 7,
      "name": "Object_15"
    },
    {
      "children": [
        17
      ],
      "matrix": [
        31.822311401367188,
        0.0,
        0.0,
        0.0,
        0.0,
        31.822311401367188,
        0.0,
        0.0,
        0.0,
        0.0,
        31.822311401367188,
        0.0,
        0.0,
        0.0633230209350586,
        2406.91748046875,
        1.0
      ],
      "name": "09 msarking .001_7"
    },
    {
      "mesh": 8,
      "name": "Object_17"
    }
  ],
  "scene": 0,
  "scenes": [
    {
      "name": "Sketchfab_Scene",
      "nodes": [
        0
      ]
    }
  ]
}
